<svg width="23" height="20" viewBox="0 0 23 20" fill="none" xmlns="http://www.w3.org/2000/svg">
<path d="M17.1429 6.85714C17.1429 7.08482 17.0491 7.29911 16.8884 7.45982L13.4598 10.8884C13.2991 11.0491 13.0848 11.1429 12.8571 11.1429C12.6295 11.1429 12.4152 11.0491 12.2545 10.8884L8.82589 7.45982C8.66518 7.29911 8.57143 7.08482 8.57143 6.85714C8.57143 6.38839 8.95982 6 9.42857 6C9.65625 6 9.87054 6.09375 10.0313 6.25446L12 8.20982V4.28571C12 3.81696 12.3884 3.42857 12.8571 3.42857C13.3259 3.42857 13.7143 3.81696 13.7143 4.28571V8.20982L15.683 6.25446C15.8438 6.09375 16.058 6 16.2857 6C16.7545 6 17.1429 6.38839 17.1429 6.85714ZM8.57143 18C8.57143 17.0491 7.80804 16.2857 6.85714 16.2857C5.90625 16.2857 5.14286 17.0491 5.14286 18C5.14286 18.9509 5.90625 19.7143 6.85714 19.7143C7.80804 19.7143 8.57143 18.9509 8.57143 18ZM20.5714 18C20.5714 17.0491 19.808 16.2857 18.8571 16.2857C17.9063 16.2857 17.1429 17.0491 17.1429 18C17.1429 18.9509 17.9063 19.7143 18.8571 19.7143C19.808 19.7143 20.5714 18.9509 20.5714 18ZM22.2857 3.42857C22.2857 2.95982 21.8973 2.57143 21.4286 2.57143H5.34375C5.20982 1.92857 5.19643 0.857142 4.28571 0.857142H0.857143C0.388393 0.857142 0 1.24553 0 1.71428C0 2.18303 0.388393 2.57143 0.857143 2.57143H3.58929L5.95982 13.5937C5.77232 13.9821 5.14286 15.0134 5.14286 15.4286C5.14286 15.8973 5.53125 16.2857 6 16.2857H19.7143C20.183 16.2857 20.5714 15.8973 20.5714 15.4286C20.5714 14.9598 20.183 14.5714 19.7143 14.5714H7.39286C7.52679 14.3036 7.71429 14.0223 7.71429 13.7143C7.71429 13.4062 7.59375 13.0714 7.54018 12.7768L21.5223 11.1429C21.9643 11.0893 22.2857 10.7143 22.2857 10.2857V3.42857Z" fill="#333333"/>
</svg>
