<svg width="173" height="253" viewBox="0 0 173 253" fill="none" xmlns="http://www.w3.org/2000/svg">
<path d="M0.2 189.136H12.944L18.344 194.608V213.112L12.944 218.512H7.472V229.528H12.944V235H0.2V229.528H2V198.28L5.672 194.608H0.2V189.136ZM10.64 194.608H7.472V213.112H10.64L12.944 210.808V196.912L10.64 194.608ZM28.9876 198.784H34.4596L39.9316 204.256V211.24H34.4596V206.488L32.1556 204.256H31.2196L28.9876 206.488V235H23.5156V204.256L21.9316 202.672L25.7476 198.784L27.4036 200.368L28.9876 198.784ZM61.2363 204.256V229.528L55.7643 235H50.2923L44.8203 229.528V204.256L50.2923 198.784H55.7643L61.2363 204.256ZM52.5243 229.528H53.4603L55.7643 227.296V206.488L53.4603 204.256H52.5243L50.2923 206.488V227.296L52.5243 229.528ZM73.2142 187.768H84.1582V193.24H75.4462L73.2142 195.472V198.784H84.1582V204.256H73.2142V235H67.7422V193.24L73.2142 187.768ZM100.024 209.152V214.624H89.1521V209.152H100.024ZM115.882 203.608V196.912L113.578 194.608H112.642L110.41 196.912V227.296L112.642 229.528H113.578L115.882 227.296V212.104H121.282V229.528L115.882 235H110.41L104.938 229.528V194.608L110.41 189.136H115.882L121.282 194.608V203.608H115.882ZM143.221 204.256V229.528L137.749 235H132.277L126.805 229.528V204.256L132.277 198.784H137.749L143.221 204.256ZM134.509 229.528H135.445L137.749 227.296V206.488L135.445 204.256H134.509L132.277 206.488V227.296L134.509 229.528ZM160.671 198.784L166.143 204.256V210.376H160.671V206.488L158.367 204.256H157.431L155.199 206.488V208.216L166.143 219.16V229.528L160.671 235H155.199L149.727 229.528V220.384H155.199V227.296L157.431 229.528H158.367L160.671 227.296V221.392L149.727 210.52V204.256L155.199 198.784H160.671Z" fill="#1A1A1A"/>
<path d="M163 78C163 120.544 129.179 155 87.5 155C45.8207 155 12 120.544 12 78C12 35.4557 45.8207 1 87.5 1C129.179 1 163 35.4557 163 78Z" stroke="#1A1A1A" stroke-width="2"/>
<path d="M85.6895 126.943L71.034 116.684C71.034 116.684 70.4478 98.5109 75.7238 94.4074C80.9998 90.3038 81.2929 76.2345 80.4135 70.9585C80.4135 70.9585 77.6727 63.1837 69.3979 64.6518C61.1231 66.1199 61.9239 75.4624 62.0574 80.4006C62.1908 85.3388 56.0515 94.8148 51.7806 97.6175C51.7806 97.6175 53.1152 86.0998 47.1093 79.0461C41.1034 71.9924 38.0338 52.1061 43.7727 40.7617C49.5117 29.4172 62.9916 18.0727 88.3499 19.4073C113.708 20.742 122.383 33.5546 123.184 39.0266C123.985 44.4987 118.379 49.7038 118.379 49.7038C118.379 49.7038 111.439 45.0325 105.433 45.2995C105.433 45.2995 106.234 56.5105 91.8199 62.6498L90.6188 78.2652L108.236 96.9502C108.236 96.9502 114.909 90.6774 118.379 90.6774C121.849 90.6774 125.453 94.014 125.453 96.5498C125.453 99.0857 125.987 101.355 122.917 104.424C122.917 104.424 121.983 100.954 121.049 101.888C120.114 102.823 118.513 105.092 120.114 109.496C121.716 113.9 122.917 122.175 118.78 129.649C114.642 137.123 99.8278 128.715 95.0231 127.113C90.2184 125.512 85.6895 126.943 85.6895 126.943Z" fill="#1A1A1A"/>
<path d="M127.233 84.4688C127.145 83.891 126.98 83.3615 126.791 82.8467C126.618 82.3212 126.392 81.8296 126.189 81.3229C125.323 79.3299 124.293 77.4321 123.254 75.5432C122.318 73.874 121.338 72.236 120.334 70.6055C121.193 70.3569 122.014 70.0243 122.798 69.4939C123.283 69.1496 123.777 68.6912 124.019 68.0189C124.091 67.8565 124.118 67.681 124.133 67.5015C124.165 67.3145 124.143 67.1654 124.127 67.013C124.103 66.6934 124.045 66.4222 123.989 66.152C123.769 65.0614 123.49 64.0154 123.213 62.9618C122.934 61.9109 122.636 60.8666 122.331 59.8255C121.726 57.7409 121.08 55.6702 120.421 53.6041C119.735 51.5456 119.077 49.4795 118.341 47.4377C118.843 49.5492 119.4 51.6436 119.913 53.7498L121.519 60.0457C122.026 62.1436 122.604 64.2495 122.986 66.337C123.081 66.8717 123.169 67.344 123.038 67.6712C122.913 68.0264 122.588 68.3597 122.194 68.6302C121.4 69.1696 120.369 69.5219 119.394 69.7419L118.634 69.913L119.044 70.5593C120.187 72.362 121.294 74.2006 122.369 76.0484C123.451 77.8928 124.489 79.7646 125.425 81.6714C125.868 82.625 126.319 83.6118 126.537 84.5778C126.646 85.0261 126.605 85.5842 126.563 86.0825C126.512 86.5924 126.375 87.0832 126.169 87.5439C125.764 88.4769 124.985 89.2261 124.122 89.8334C123.254 90.4441 122.301 90.9468 121.339 91.4243C122.347 91.0525 123.347 90.6384 124.277 90.0718C125.203 89.5175 126.101 88.7931 126.64 87.7774C126.908 87.2768 127.086 86.7253 127.174 86.1704C127.249 85.6062 127.33 85.081 127.233 84.4688Z" fill="#1A1A1A"/>
<path opacity="0.25" d="M64.879 31.4285C59.2639 33.7756 54.0063 37.2055 50.173 41.9324C46.3397 46.6594 44.0272 52.7628 44.5154 58.829C46.2988 54.3583 49.1424 50.3145 52.7465 47.124C48.4006 55.7181 48.1259 66.265 52.0186 75.0736C50.9057 68.0946 53.4601 60.6342 58.617 55.8019C58.4293 62.8016 58.2416 69.8013 58.0538 76.8009C56.9539 72.0369 56.8065 66.9131 58.607 62.3673C60.4075 57.8215 64.4032 53.9748 69.2372 53.2408C74.0711 52.5069 79.4513 55.5005 80.6115 60.2503C82.318 56.7524 84.0246 53.2546 85.7311 49.7568C85.9034 52.519 86.0758 55.2813 86.2481 58.0435C88.3185 51.5776 92.8025 45.9156 98.6221 42.4189C104.497 38.8887 111.069 37.9891 117.784 38.7095C109.898 34.9262 102.936 30.2888 94.099 28.5975C84.3579 26.7333 74.0533 27.5936 64.879 31.4285Z" fill="#1A1A1A"/>
<path opacity="0.25" d="M57.9722 42.752C68.8075 35.1192 82.6974 31.9608 95.7679 34.1575C89.5653 35.9037 84.5519 41.3257 83.296 47.6457C81.9248 46.2739 81.5626 43.9986 82.4399 42.2688C79.9124 44.784 77.0654 46.9777 73.989 48.7806C72.0941 47.2638 69.4108 47.0518 67.0565 47.6423C64.7022 48.2328 62.5944 49.525 60.5285 50.7993C60.1172 51.053 59.7058 51.3067 59.2945 51.5604C59.0021 51.7408 58.7096 51.9211 58.4172 52.1015C56.9563 53.0026 55.4954 53.9037 54.0344 54.8047C54.9066 52.9775 55.7832 51.1426 56.9157 49.4643C60.2197 44.5682 65.734 41.2279 71.6036 40.5671C65.5856 39.5671 59.1241 41.8448 55.0635 46.3975C55.8551 43.7669 57.7984 41.5054 60.2799 40.3269" fill="#1A1A1A"/>
<path opacity="0.25" d="M116.83 105.27C117.269 110.156 117.708 115.042 118.146 119.929C118.273 121.34 118.396 122.796 117.965 124.146C117.534 125.496 116.402 126.727 114.988 126.82C113.193 126.939 111.835 125.333 110.543 124.081C105.358 119.059 96.4496 118.514 90.6913 122.867C92.5629 119.19 96.8142 116.876 100.918 117.3C96.5316 114.826 90.6925 115.221 86.6793 118.262C87.9223 116.123 89.1652 113.984 90.4082 111.844C88.5421 113.597 86.6761 115.35 84.81 117.103C85.4626 114.283 86.1152 111.462 86.7678 108.642C83.6326 109.758 81.114 112.471 80.235 115.681C78.452 110.863 79.0427 105.23 81.7862 100.887C79.3004 103.539 77.9031 107.183 77.9782 110.817C76.0262 108.478 76.0973 105.006 77.0887 102.126C78.0801 99.2456 79.8475 96.7001 81.0761 93.9129C83.3918 88.6593 83.7105 82.7578 83.6292 77.0171C85.1366 80.7817 86.644 84.5463 88.1514 88.3109C88.1955 86.3251 88.2397 84.3393 88.2839 82.3535C91.6794 88.7153 94.2898 95.4956 96.0374 102.492C96.5988 99.6924 97.1602 96.8929 97.7217 94.0934C99.0191 96.3224 100.317 98.5513 101.614 100.78C102.029 100.104 102.444 99.4274 102.86 98.7509C104.377 101.26 105.894 103.769 107.411 106.279C108.331 99.072 115.502 93.2528 122.744 93.8366C123.49 94.1925 123.413 95.3645 122.833 95.9532C122.253 96.5419 121.399 96.7409 120.631 97.0436C116.366 98.7222 114.544 104.723 117.154 108.49" fill="#1A1A1A"/>
<path d="M85.2468 105.57C87.4719 103.936 89.247 101.696 90.3286 99.1564C90.2863 101.604 90.244 104.051 90.2018 106.499C90.1947 106.907 90.2037 107.359 90.4813 107.657C90.8464 108.05 91.4751 107.982 92.0022 107.883C94.6045 107.394 97.2069 106.905 99.8093 106.417C99.3462 108.163 98.8832 109.91 98.4201 111.657C101.591 109.599 106.111 109.917 108.962 112.399C111.032 114.201 112.133 116.842 113.165 119.384C111.969 114.812 111.547 110.038 111.924 105.327C112.083 106.541 111.372 107.82 110.256 108.324C109.117 108.839 107.744 108.553 106.68 107.898C105.616 107.242 104.798 106.264 103.999 105.302C103.616 106.392 103.232 107.481 102.848 108.571C102.544 106.78 102.24 104.989 101.937 103.198C100.221 103.833 98.5054 104.469 96.7897 105.104C95.4982 105.582 93.9285 106.023 92.8477 105.17C92.1065 104.584 91.8714 103.58 91.6832 102.654C91.234 100.446 90.7848 98.2383 90.3357 96.0303C89.5642 96.915 88.7927 97.7998 88.0212 98.6846C87.7253 98.6846 86.4876 95.1638 86.1985 94.7825C85.5186 96.1022 85.7771 98.512 85.6639 100.019C85.5249 101.869 85.3859 103.719 85.2468 105.57Z" fill="#1A1A1A"/>
</svg>
