<svg width="143" height="63" viewBox="0 0 143 63" fill="none" xmlns="http://www.w3.org/2000/svg">
<path d="M70.25 20.89H75.56L77.81 23.17V30.88L75.56 33.13H73.28V37.72H75.56V40H70.25V37.72H71V24.7L72.53 23.17H70.25V20.89ZM74.6 23.17H73.28V30.88H74.6L75.56 29.92V24.13L74.6 23.17ZM82.2448 24.91H84.5248L86.8048 27.19V30.1H84.5248V28.12L83.5648 27.19H83.1748L82.2448 28.12V40H79.9648V27.19L79.3048 26.53L80.8948 24.91L81.5848 25.57L82.2448 24.91ZM95.6818 27.19V37.72L93.4018 40H91.1218L88.8418 37.72V27.19L91.1218 24.91H93.4018L95.6818 27.19ZM92.0518 37.72H92.4418L93.4018 36.79V28.12L92.4418 27.19H92.0518L91.1218 28.12V36.79L92.0518 37.72ZM100.673 20.32H105.233V22.6H101.603L100.673 23.53V24.91H105.233V27.19H100.673V40H98.3926V22.6L100.673 20.32ZM111.843 29.23V31.51H107.313V29.23H111.843ZM118.451 26.92V24.13L117.491 23.17H117.101L116.171 24.13V36.79L117.101 37.72H117.491L118.451 36.79V30.46H120.701V37.72L118.451 40H116.171L113.891 37.72V23.17L116.171 20.89H118.451L120.701 23.17V26.92H118.451ZM129.842 27.19V37.72L127.562 40H125.282L123.002 37.72V27.19L125.282 24.91H127.562L129.842 27.19ZM126.212 37.72H126.602L127.562 36.79V28.12L126.602 27.19H126.212L125.282 28.12V36.79L126.212 37.72ZM137.113 24.91L139.393 27.19V29.74H137.113V28.12L136.153 27.19H135.763L134.833 28.12V28.84L139.393 33.4V37.72L137.113 40H134.833L132.553 37.72V33.91H134.833V36.79L135.763 37.72H136.153L137.113 36.79V34.33L132.553 29.8V27.19L134.833 24.91H137.113Z" fill="#333333"/>
<path d="M60.5 31.1993C60.5 48.0399 47.0612 61.6786 30.5 61.6786C13.9388 61.6786 0.5 48.0399 0.5 31.1993C0.5 14.3586 13.9388 0.719971 30.5 0.719971C47.0612 0.719971 60.5 14.3586 60.5 31.1993Z" stroke="#343434"/>
<path d="M29.6704 50.2153L23.8547 46.1444C23.8547 46.1444 23.6221 38.9329 25.7157 37.3045C27.8094 35.6761 27.9257 30.093 27.5768 27.9994C27.5768 27.9994 26.4891 24.9141 23.2055 25.4967C19.9218 26.0793 20.2396 29.7867 20.2926 31.7463C20.3455 33.7059 17.9093 37.4662 16.2145 38.5784C16.2145 38.5784 16.7441 34.0078 14.3608 31.2087C11.9775 28.4096 10.7594 20.5183 13.0368 16.0165C15.3141 11.5147 20.6633 7.01296 30.7261 7.54258C40.7889 8.0722 44.2314 13.1566 44.5492 15.328C44.867 17.4995 42.6426 19.565 42.6426 19.565C42.6426 19.565 39.8886 17.7113 37.5053 17.8172C37.5053 17.8172 37.823 22.266 32.1031 24.7023L31.6265 30.8989L38.6175 38.3136C38.6175 38.3136 41.2656 35.8243 42.6426 35.8243C44.0196 35.8243 45.4496 37.1484 45.4496 38.1547C45.4496 39.161 45.6614 40.0613 44.4433 41.2794C44.4433 41.2794 44.0726 39.9024 43.7018 40.2732C43.3311 40.6439 42.6955 41.5442 43.3311 43.292C43.9666 45.0397 44.4433 48.3234 42.8015 51.2893C41.1596 54.2551 35.2808 50.9185 33.3742 50.283C31.4676 49.6474 29.6704 50.2153 29.6704 50.2153Z" fill="black"/>
<path d="M46.1558 33.3606C46.1209 33.1313 46.0556 32.9212 45.9805 32.7169C45.912 32.5084 45.8223 32.3133 45.7415 32.1122C45.3978 31.3214 44.9894 30.5683 44.5769 29.8187C44.2055 29.1563 43.8165 28.5063 43.4183 27.8593C43.7591 27.7607 44.0848 27.6287 44.3958 27.4182C44.5883 27.2816 44.7845 27.0997 44.8807 26.8329C44.909 26.7684 44.9198 26.6988 44.9258 26.6276C44.9385 26.5534 44.9298 26.4942 44.9232 26.4337C44.914 26.3069 44.891 26.1993 44.8688 26.0921C44.7814 25.6593 44.6708 25.2442 44.5607 24.8261C44.4502 24.4091 44.3318 23.9947 44.2105 23.5815C43.9706 22.7543 43.7141 21.9326 43.4526 21.1128C43.1805 20.2959 42.9194 19.476 42.6274 18.6658C42.8265 19.5036 43.0476 20.3348 43.2513 21.1706L43.8886 23.6689C44.0898 24.5014 44.3189 25.3371 44.4706 26.1655C44.5084 26.3777 44.5431 26.5651 44.4914 26.6949C44.4415 26.8359 44.3129 26.9681 44.1565 27.0755C43.8411 27.2895 43.4322 27.4293 43.0451 27.5166L42.7438 27.5845L42.9064 27.841C43.36 28.5564 43.7992 29.286 44.2257 30.0192C44.6551 30.7511 45.0672 31.4939 45.4385 32.2506C45.6145 32.629 45.7934 33.0205 45.8796 33.4039C45.9232 33.5818 45.9069 33.8032 45.89 34.001C45.8698 34.2033 45.8155 34.3981 45.7335 34.5809C45.5728 34.9512 45.2637 35.2485 44.9212 35.4894C44.5769 35.7318 44.1987 35.9313 43.817 36.1207C44.217 35.9732 44.6137 35.8089 44.983 35.5841C45.3504 35.3641 45.7068 35.0766 45.9207 34.6736C46.0269 34.4749 46.0976 34.2561 46.1325 34.0359C46.1623 33.812 46.1944 33.6036 46.1558 33.3606Z" fill="black"/>
<path opacity="0.25" d="M21.4123 12.3129C19.1841 13.2443 17.0977 14.6054 15.5766 16.4812C14.0554 18.3569 13.1377 20.7789 13.3315 23.1862C14.0392 21.4121 15.1676 19.8074 16.5978 18.5413C14.8732 21.9517 14.7642 26.1369 16.3089 29.6324C15.8673 26.863 16.8809 23.9025 18.9274 21.9849C18.8529 24.7626 18.7784 27.5402 18.7039 30.3179C18.2674 28.4274 18.2089 26.3941 18.9234 24.5902C19.6379 22.7864 21.2234 21.2599 23.1417 20.9686C25.0599 20.6774 27.1949 21.8653 27.6553 23.7501C28.3325 22.3621 29.0097 20.9741 29.6869 19.5861C29.7553 20.6822 29.8237 21.7783 29.892 22.8744C30.7136 20.3086 32.493 18.0618 34.8024 16.6742C37.1339 15.2733 39.7415 14.9163 42.4062 15.2022C39.2771 13.7009 36.5143 11.8607 33.0075 11.1895C29.142 10.4498 25.0528 10.7912 21.4123 12.3129Z" fill="black"/>
<path opacity="0.25" d="M18.6715 16.8063C22.9712 13.7774 28.4831 12.5241 33.6698 13.3958C31.2085 14.0887 29.219 16.2403 28.7206 18.7483C28.1765 18.2039 28.0328 17.301 28.3809 16.6146C27.3779 17.6126 26.2482 18.4832 25.0274 19.1986C24.2754 18.5967 23.2106 18.5126 22.2764 18.7469C21.3421 18.9812 20.5057 19.494 19.6859 19.9997C19.5227 20.1003 19.3594 20.201 19.1962 20.3017C19.0802 20.3733 18.9641 20.4448 18.8481 20.5164C18.2684 20.874 17.6886 21.2316 17.1089 21.5891C17.455 20.8641 17.8028 20.1359 18.2523 19.4699C19.5633 17.527 21.7516 16.2015 24.0808 15.9393C21.6927 15.5425 19.1286 16.4463 17.5172 18.2529C17.8314 17.2091 18.6025 16.3116 19.5873 15.844" fill="black"/>
<path opacity="0.25" d="M42.0278 41.615C42.2019 43.554 42.3761 45.493 42.5502 47.4319C42.6005 47.9921 42.649 48.5699 42.478 49.1056C42.307 49.6413 41.8581 50.1296 41.297 50.1667C40.5846 50.2139 40.0457 49.5765 39.5329 49.0797C37.4754 47.0869 33.9404 46.8706 31.6553 48.5978C32.398 47.1389 34.085 46.2206 35.7134 46.3888C33.9729 45.4072 31.6558 45.5638 30.0632 46.7708C30.5565 45.9218 31.0497 45.0728 31.543 44.2238C30.8025 44.9194 30.062 45.615 29.3215 46.3105C29.5804 45.1915 29.8394 44.0724 30.0984 42.9533C28.8542 43.3959 27.8548 44.4726 27.506 45.7463C26.7984 43.8347 27.0328 41.5991 28.1215 39.8759C27.1351 40.9282 26.5806 42.374 26.6104 43.816C25.8358 42.8882 25.864 41.5102 26.2575 40.3673C26.6509 39.2244 27.3522 38.2143 27.8397 37.1083C28.7587 35.0235 28.8852 32.6816 28.8529 30.4036C29.4511 31.8975 30.0492 33.3913 30.6474 34.8852C30.6649 34.0972 30.6824 33.3092 30.7 32.5212C32.0474 35.0457 33.0833 37.7363 33.7767 40.5126C33.9995 39.4017 34.2223 38.2908 34.4451 37.1799C34.96 38.0644 35.4749 38.9489 35.9897 39.8334C36.1545 39.565 36.3193 39.2965 36.484 39.0281C37.086 40.0238 37.6879 41.0196 38.2899 42.0153C38.6551 39.1555 41.5009 36.8463 44.3746 37.078C44.6706 37.2192 44.6399 37.6843 44.4098 37.9179C44.1797 38.1515 43.8411 38.2305 43.536 38.3506C41.8438 39.0167 41.1205 41.398 42.1562 42.8927" fill="black"/>
<path d="M29.4948 41.734C30.3777 41.0858 31.0821 40.1969 31.5113 39.1891C31.4945 40.1603 31.4778 41.1316 31.461 42.1028C31.4582 42.2646 31.4618 42.444 31.5719 42.5625C31.7168 42.7184 31.9663 42.6913 32.1754 42.652C33.2081 42.4581 34.2408 42.2641 35.2735 42.0702C35.0898 42.7634 34.906 43.4565 34.7222 44.1497C35.9805 43.3331 37.774 43.4594 38.9055 44.4442C39.7269 45.1591 40.1638 46.2071 40.5735 47.2161C40.0987 45.4017 39.9314 43.5072 40.0809 41.6376C40.1441 42.1196 39.8618 42.6269 39.4189 42.8272C38.967 43.0315 38.4224 42.9178 38.0001 42.6578C37.5779 42.3978 37.2532 42.0095 36.9363 41.628C36.7839 42.0603 36.6315 42.4926 36.4792 42.9249C36.3587 42.2142 36.2382 41.5035 36.1178 40.7928C35.4369 41.045 34.7561 41.2971 34.0753 41.5492C33.5628 41.739 32.9399 41.9141 32.511 41.5754C32.2168 41.3431 32.1236 40.9445 32.0489 40.5772C31.8706 39.701 31.6924 38.8248 31.5141 37.9486C31.208 38.2997 30.9018 38.6508 30.5957 39.0019C30.4783 39.0019 29.9871 37.6047 29.8724 37.4534C29.6026 37.9772 29.7052 38.9334 29.6603 39.5313C29.6051 40.2655 29.5499 40.9998 29.4948 41.734Z" fill="black"/>
</svg>
