<svg width="92" height="99" viewBox="0 0 92 99" fill="none" xmlns="http://www.w3.org/2000/svg">
<circle cx="46" cy="46" r="45" fill="#1A1A1A" stroke="white" stroke-width="2"/>
<path d="M35.071 37.7585L34.4132 34.7748H58.3024L57.6219 37.7585H35.071Z" fill="white" stroke="black"/>
<path d="M33.8898 32.5117L30.6536 17.8393L39.2071 25.7039L39.6331 26.0955L39.9588 25.6172L46.3592 16.2177L52.7306 25.6164L53.056 26.0964L53.4829 25.7039L62.0364 17.8393L58.8002 32.5117H33.8898Z" fill="white" stroke="black"/>
<path d="M34.291 37.7909V34.7748H58.4596V37.7909H34.291Z" fill="white" stroke="black"/>
<path d="M25.66 54.46H23.22V51.8H31.68V54.46H29.26V68H25.66V54.46ZM44.6463 68.24C42.8996 68.24 41.6529 67.7933 40.9062 66.9C40.1596 65.9933 39.7862 64.66 39.7862 62.9V56.88C39.7862 55.12 40.1596 53.8 40.9062 52.92C41.6529 52.0267 42.8996 51.58 44.6463 51.58C46.4063 51.58 47.6596 52.0267 48.4062 52.92C49.1662 53.8133 49.5462 55.1333 49.5462 56.88V62.9C49.5462 64.66 49.1662 65.9933 48.4062 66.9C47.6596 67.7933 46.4063 68.24 44.6463 68.24ZM44.6463 65.7C45.1529 65.7 45.4862 65.5333 45.6462 65.2C45.8062 64.8533 45.8862 64.3867 45.8862 63.8V56C45.8862 55.4 45.8062 54.9333 45.6462 54.6C45.4862 54.2667 45.1529 54.1 44.6463 54.1C44.1662 54.1 43.8462 54.2733 43.6862 54.62C43.5262 54.9533 43.4462 55.4133 43.4462 56V63.8C43.4462 64.3867 43.5196 64.8533 43.6662 65.2C43.8129 65.5333 44.1396 65.7 44.6463 65.7ZM58.625 51.8H68.325V68H64.805V54.36H62.145V68H58.625V51.8Z" fill="white"/>
<path d="M25.66 54.46H26.66V53.46H25.66V54.46ZM23.22 54.46H22.22V55.46H23.22V54.46ZM23.22 51.8V50.8H22.22V51.8H23.22ZM31.68 51.8H32.68V50.8H31.68V51.8ZM31.68 54.46V55.46H32.68V54.46H31.68ZM29.26 54.46V53.46H28.26V54.46H29.26ZM29.26 68V69H30.26V68H29.26ZM25.66 68H24.66V69H25.66V68ZM25.66 53.46H23.22V55.46H25.66V53.46ZM24.22 54.46V51.8H22.22V54.46H24.22ZM23.22 52.8H31.68V50.8H23.22V52.8ZM30.68 51.8V54.46H32.68V51.8H30.68ZM31.68 53.46H29.26V55.46H31.68V53.46ZM28.26 54.46V68H30.26V54.46H28.26ZM29.26 67H25.66V69H29.26V67ZM26.66 68V54.46H24.66V68H26.66ZM40.9062 66.9L40.1343 67.5357L40.139 67.5413L40.9062 66.9ZM40.9062 52.92L41.6688 53.567L41.6735 53.5613L40.9062 52.92ZM48.4062 52.92L47.6389 53.5613L47.6446 53.568L48.4062 52.92ZM48.4062 66.9L47.6399 66.2576L47.639 66.2587L48.4062 66.9ZM45.6462 65.2L46.5478 65.6327L46.551 65.6259L46.5542 65.6191L45.6462 65.2ZM45.6462 54.6L44.7447 55.0327V55.0327L45.6462 54.6ZM43.6863 54.62L44.5878 55.0527L44.591 55.0459L44.5942 55.0391L43.6863 54.62ZM43.6663 65.2L42.7453 65.5896L42.7481 65.5962L42.7509 65.6027L43.6663 65.2ZM44.6462 67.24C43.0451 67.24 42.1511 66.83 41.6735 66.2587L40.139 67.5413C41.1548 68.7566 42.7541 69.24 44.6462 69.24V67.24ZM41.6782 66.2643C41.1368 65.607 40.7862 64.5393 40.7862 62.9H38.7863C38.7863 64.7807 39.1823 66.3797 40.1343 67.5357L41.6782 66.2643ZM40.7862 62.9V56.88H38.7863V62.9H40.7862ZM40.7862 56.88C40.7862 55.2377 41.1381 54.1924 41.6688 53.567L40.1437 52.273C39.1811 53.4076 38.7863 55.0023 38.7863 56.88H40.7862ZM41.6735 53.5613C42.1511 52.99 43.0451 52.58 44.6462 52.58V50.58C42.7541 50.58 41.1548 51.0634 40.139 52.2787L41.6735 53.5613ZM44.6462 52.58C46.2637 52.58 47.1627 52.9915 47.639 53.5613L49.1735 52.2787C48.1565 51.0619 46.5488 50.58 44.6462 50.58V52.58ZM47.6446 53.568C48.1909 54.2101 48.5462 55.2583 48.5462 56.88H50.5462C50.5462 55.0084 50.1416 53.4166 49.1679 52.272L47.6446 53.568ZM48.5462 56.88V62.9H50.5462V56.88H48.5462ZM48.5462 62.9C48.5462 64.5358 48.1905 65.6007 47.6399 66.2576L49.1726 67.5424C50.142 66.3859 50.5462 64.7842 50.5462 62.9H48.5462ZM47.639 66.2587C47.1627 66.8285 46.2637 67.24 44.6462 67.24V69.24C46.5488 69.24 48.1565 68.7581 49.1735 67.5413L47.639 66.2587ZM44.6462 66.7C45.3714 66.7 46.1599 66.4409 46.5478 65.6327L44.7447 64.7673C44.7501 64.7562 44.7618 64.7367 44.7819 64.7164C44.8019 64.6961 44.8203 64.685 44.829 64.6806C44.8365 64.6768 44.8292 64.6819 44.7991 64.6879C44.7686 64.6939 44.7191 64.7 44.6462 64.7V66.7ZM46.5542 65.6191C46.7986 65.0896 46.8862 64.4613 46.8862 63.8H44.8862C44.8862 64.312 44.8139 64.6171 44.7383 64.7809L46.5542 65.6191ZM46.8862 63.8V56H44.8862V63.8H46.8862ZM46.8862 56C46.8862 55.3327 46.8007 54.6943 46.5478 54.1673L44.7447 55.0327C44.8118 55.1724 44.8862 55.4673 44.8862 56H46.8862ZM46.5478 54.1673C46.1599 53.3591 45.3714 53.1 44.6462 53.1V55.1C44.7191 55.1 44.7686 55.1061 44.7991 55.1121C44.8292 55.1181 44.8365 55.1232 44.829 55.1194C44.8203 55.115 44.8019 55.1039 44.7819 55.0836C44.7618 55.0633 44.7501 55.0438 44.7447 55.0327L46.5478 54.1673ZM44.6462 53.1C44.2911 53.1 43.9155 53.1636 43.57 53.3507C43.2104 53.5454 42.944 53.8419 42.7783 54.2009L44.5942 55.0391C44.5942 55.039 44.5926 55.0425 44.5886 55.0486C44.5846 55.0547 44.5788 55.0624 44.5711 55.0708C44.5544 55.0888 44.5364 55.1018 44.5225 55.1093C44.497 55.1231 44.5214 55.1 44.6462 55.1V53.1ZM42.7847 54.1873C42.5329 54.712 42.4462 55.342 42.4462 56H44.4462C44.4462 55.4847 44.5196 55.1947 44.5878 55.0527L42.7847 54.1873ZM42.4462 56V63.8H44.4462V56H42.4462ZM42.4462 63.8C42.4462 64.4538 42.5256 65.0703 42.7453 65.5896L44.5872 64.8104C44.5136 64.6364 44.4462 64.3196 44.4462 63.8H42.4462ZM42.7509 65.6027C43.1198 66.4411 43.9259 66.7 44.6462 66.7V64.7C44.5733 64.7 44.5248 64.6939 44.4961 64.6882C44.4679 64.6825 44.4641 64.6783 44.4757 64.6842C44.4889 64.691 44.5121 64.7058 44.5362 64.7313C44.5604 64.7569 44.5747 64.7817 44.5816 64.7973L42.7509 65.6027ZM58.625 51.8V50.8H57.625V51.8H58.625ZM68.325 51.8H69.325V50.8H68.325V51.8ZM68.325 68V69H69.325V68H68.325ZM64.805 68H63.805V69H64.805V68ZM64.805 54.36H65.805V53.36H64.805V54.36ZM62.145 54.36V53.36H61.145V54.36H62.145ZM62.145 68V69H63.145V68H62.145ZM58.625 68H57.625V69H58.625V68ZM58.625 52.8H68.325V50.8H58.625V52.8ZM67.325 51.8V68H69.325V51.8H67.325ZM68.325 67H64.805V69H68.325V67ZM65.805 68V54.36H63.805V68H65.805ZM64.805 53.36H62.145V55.36H64.805V53.36ZM61.145 54.36V68H63.145V54.36H61.145ZM62.145 67H58.625V69H62.145V67ZM59.625 68V51.8H57.625V68H59.625Z" fill="black"/>
</svg>
